<?xml version="1.0" encoding="UTF-8" standalone="no"?> <svg xmlns="http://www.w3.org/2000/svg" viewBox="0 0 64 64"><defs><style>.cls-1{fill:#fff;}.cls-1,.cls-4,.cls-5{stroke:#54596e;stroke-linecap:round;stroke-width:2px;}.cls-1,.cls-4{stroke-linejoin:round;}.cls-2{fill:#54596e;}.cls-3{opacity:0.2;}.cls-4{fill:#55a6ff;}.cls-5{fill:none;stroke-miterlimit:10;}</style></defs><title>bulb-sad</title><g id="bulb-sad"><path class="cls-1" d="M52,22A20,20,0,1,0,19.93,37.93,13.2,13.2,0,0,1,25,48.49V50H39V48.13A13.11,13.11,0,0,1,44.23,37.8,19.92,19.92,0,0,0,52,22Z"/><circle class="cls-2" cx="21.5" cy="20.5" r="1.5"/><circle class="cls-2" cx="42.5" cy="20.5" r="1.5"/><g class="cls-3"><path class="cls-2" d="M22.95,37.93C19.4,34.34,17.08,28.71,17,22.34,16.87,11.7,23.22,2.59,31.18,2L32,2,30.91,2A20.15,20.15,0,0,0,12,22.34a19.93,19.93,0,0,0,7.93,15.58A13.2,13.2,0,0,1,25,48.49V50h1.75V48.49C26.75,44.38,25.41,40.41,22.95,37.93Z"/><path class="cls-2" d="M32,2c8.28,0,15,9,15,20,0,6.43-2.28,12.15-5.83,15.8a14.92,14.92,0,0,0-3.92,10.34V50H39V48.13A13.11,13.11,0,0,1,44.23,37.8,20,20,0,0,0,32,2Z"/></g><rect class="cls-4" x="23" y="50" width="18" height="4" rx="2" ry="2"/><rect class="cls-4" x="23" y="54" width="18" height="4" rx="2" ry="2"/><path class="cls-1" d="M28,58h8a0,0,0,0,1,0,0v0a3,3,0,0,1-3,3H31a3,3,0,0,1-3-3v0A0,0,0,0,1,28,58Z"/><line class="cls-5" x1="32" y1="50" x2="32" y2="36"/><path class="cls-5" d="M37.35,27.06A12.33,12.33,0,0,0,32,26a11.61,11.61,0,0,0-5.72,1.27"/></g></svg>